<?xml version="1.0" encoding="UTF-8" standalone="no"?>
<!-- Created with Inkscape (http://www.inkscape.org/) -->

<svg
   version="1.1"
   id="svg2"
   width="793.70667"
   height="1122.52"
   viewBox="0 0 793.70667 1122.52"
   sodipodi:docname="logo5.ai"
   xmlns:inkscape="http://www.inkscape.org/namespaces/inkscape"
   xmlns:sodipodi="http://sodipodi.sourceforge.net/DTD/sodipodi-0.dtd"
   xmlns="http://www.w3.org/2000/svg"
   xmlns:svg="http://www.w3.org/2000/svg">
  <defs
     id="defs6">
    <clipPath
       clipPathUnits="userSpaceOnUse"
       id="clipPath16">
      <path
         d="M 0,841.89 H 595.28 V 0 H 0 Z"
         id="path14" />
    </clipPath>
  </defs>
  <sodipodi:namedview
     id="namedview4"
     pagecolor="#ffffff"
     bordercolor="#000000"
     borderopacity="0.25"
     inkscape:showpageshadow="2"
     inkscape:pageopacity="0.0"
     inkscape:pagecheckerboard="0"
     inkscape:deskcolor="#d1d1d1" />
  <g
     id="g8"
     inkscape:groupmode="layer"
     inkscape:label="logo5"
     transform="matrix(1.3333333,0,0,-1.3333333,0,1122.52)">
    <g
       id="g10">
      <g
         id="g12"
         clip-path="url(#clipPath16)">
        <g
           id="g18"
           transform="translate(455.8213,465.0385)">
          <path
             d="m 0,0 c 0,-87.361 -70.82,-158.183 -158.183,-158.183 -87.359,0 -158.18,70.822 -158.18,158.183 0,87.361 70.821,158.183 158.18,158.183 C -70.82,158.183 0,87.361 0,0 m 58.669,0 c 0,119.764 -97.087,216.851 -216.852,216.851 -119.762,0 -216.849,-97.087 -216.849,-216.851 0,-119.764 97.087,-216.851 216.849,-216.851 119.765,0 216.852,97.087 216.852,216.851"
             style="fill:#3871c1;fill-opacity:1;fill-rule:nonzero;stroke:none"
             id="path20" />
        </g>
        <g
           id="g22"
           transform="translate(419.4023,465.0477)">
          <path
             d="m 0,0 c 0,67.224 -54.515,121.755 -121.773,121.755 -67.239,0 -121.754,-54.531 -121.754,-121.755 0,-67.257 54.515,-121.773 121.754,-121.773 C -54.515,-121.773 0,-67.257 0,0 m -158.382,-72.046 c 17.61,15.939 81.889,54.11 -44.902,149.86 105.048,-30.517 154.32,-53.552 160.611,-69.161 8.443,-20.957 -89.69,-68.885 -115.709,-80.699"
             style="fill:#3871c1;fill-opacity:1;fill-rule:nonzero;stroke:none"
             id="path24" />
        </g>
        <g
           id="g26"
           transform="translate(131.7354,513.8798)">
          <path
             d="m 0,0 1.871,6.034 -21.531,6.673 2.247,7.255 -5.045,1.565 -6.331,-20.425 5.046,-1.567 2.213,7.138 z m -19.544,-7.509 -1.796,-10.08 -5.689,1.014 1.905,10.689 -5.084,0.907 -3.008,-16.91 27.394,-4.878 3.111,17.475 -5.081,0.907 -2.005,-11.258 -6.502,1.158 1.794,10.08 z m 12.53,-36.483 0.338,6.306 -22.507,1.211 0.408,7.582 -5.276,0.285 -1.149,-21.353 5.277,-0.284 0.403,7.459 z m -25.769,-36.312 27.703,2.539 -0.654,7.149 -10.506,4.717 c -3.069,1.381 -6.887,2.814 -10.293,3.788 l -0.011,0.123 c 3.65,-0.038 7.44,0.225 11.715,0.616 l 8.178,0.749 -0.526,5.75 -27.703,-2.534 0.588,-6.411 11.437,-4.966 c 3.112,-1.372 6.941,-2.889 10.32,-4.031 l 0.016,-0.166 c -3.723,-0.091 -8.13,-0.411 -12.569,-0.82 l -8.223,-0.753 z m 23.324,-3.931 c 0.792,-1.072 1.732,-3.001 2.217,-4.835 1.435,-5.429 -1.112,-9.52 -6.502,-10.946 -5.99,-1.584 -9.895,1.399 -11.172,6.226 -0.573,2.156 -0.548,3.998 -0.355,5.374 l -5.155,-0.042 c -0.272,-1.225 -0.276,-3.788 0.56,-6.941 2.153,-8.142 8.986,-13.332 18.167,-10.901 7.666,2.027 12.181,8.34 9.724,17.638 -0.867,3.274 -2.131,5.63 -2.984,6.602 z m -4.294,-42.821 c -0.292,0.369 -0.747,1.117 -1.248,2.298 -1.225,2.888 -0.514,5.124 1.843,6.123 2.623,1.115 4.987,-0.123 6.299,-3.205 0.353,-0.833 0.575,-1.459 0.672,-2.002 z m 23.636,3.276 -2.437,5.733 -9.155,-3.894 c -0.152,0.566 -0.404,1.268 -0.726,2.029 -1.456,3.422 -3.532,5.992 -6.232,7.174 -2.088,0.907 -4.572,0.838 -7.079,-0.228 -2.512,-1.066 -4.17,-3.073 -4.767,-5.251 -0.639,-2.291 -0.24,-5.125 1.277,-8.7 1.504,-3.534 2.795,-5.943 3.855,-7.598 z m -12.159,-13.341 5.105,-8.874 -5.014,-2.885 -5.415,9.411 -4.468,-2.571 8.56,-14.88 24.114,13.871 -8.848,15.381 -4.468,-2.57 5.703,-9.911 -5.732,-3.299 -5.103,8.877 z m 24.413,-28.557 -1.331,1.685 c -1.946,2.462 -2.63,5.131 -0.426,6.871 2.301,1.815 4.703,0.503 6.468,-1.734 0.666,-0.842 1.125,-1.428 1.444,-1.962 z m -8.621,-6.803 c -0.399,0.371 -0.949,0.935 -1.794,2.005 -1.764,2.237 -1.887,4.19 -0.233,5.495 1.619,1.278 3.789,0.729 5.834,-1.866 l 1.279,-1.62 z m 22.042,9.455 c -0.707,1.23 -1.977,3.171 -3.895,5.601 -3.427,4.343 -6.237,6.438 -8.756,7.028 -2.176,0.491 -4.445,0.172 -6.422,-1.386 -2.82,-2.228 -3.243,-5.557 -1.955,-8.588 l -0.066,-0.053 c -2.851,1.747 -5.559,1.45 -7.505,-0.085 -1.977,-1.558 -2.597,-3.837 -2.205,-6 0.312,-2.331 1.481,-4.408 3.856,-7.422 1.944,-2.462 4.21,-4.934 5.494,-6.025 z m 1.408,-40.135 19.053,20.281 -5.236,4.918 -10.991,-3.44 c -3.21,-1.005 -7.02,-2.467 -10.213,-4 l -0.093,0.085 c 2.761,2.396 5.42,5.107 8.361,8.237 l 5.624,5.987 -4.211,3.956 -19.052,-20.278 4.692,-4.409 11.856,3.875 c 3.236,1.034 7.106,2.44 10.392,3.828 l 0.123,-0.112 c -2.727,-2.541 -5.812,-5.703 -8.864,-8.952 l -5.653,-6.018 z m 27.367,-19.075 15.207,23.304 -5.29,3.45 -6.364,-9.75 -8.676,5.662 6.361,9.75 -5.256,3.431 -15.205,-23.304 5.254,-3.428 5.845,8.954 8.679,-5.662 -5.846,-8.955 z m 27.959,-13.63 -0.629,21.28 c 0,0.498 0.043,0.886 0.457,1.197 0.979,0.961 2.729,1.618 4.496,0.816 0.826,-0.376 1.395,-0.724 1.793,-1.042 l 2.496,4.399 c -0.596,0.587 -1.316,1.096 -2.632,1.693 -2.969,1.348 -5.654,1.028 -8.248,-0.29 -2.937,-1.478 -6.257,-4.593 -9.59,-7.842 l -10.318,-10.138 6.012,-2.734 6.756,7.589 c 1.615,1.851 2.795,3.355 3.628,4.293 l 0.113,-0.054 c -0.136,-1.794 -0.292,-3.539 -0.437,-5.649 l -0.36,-10.581 z m 34.321,-16.463 c 0.456,3.455 -1.197,5.487 -4.737,6.3 -3.581,0.822 -6.176,-0.147 -7.213,-3.553 l 4.104,-0.943 c 0.52,1.53 1.207,2.306 2.454,2.021 1.289,-0.298 1.527,-1.284 1.207,-2.864 z m 6.654,4.996 6.228,27.122 -7,1.604 -7.759,-8.51 c -2.265,-2.487 -4.819,-5.672 -6.805,-8.601 l -0.12,0.027 c 1.175,3.457 2.106,7.14 3.068,11.325 l 1.837,8.007 -5.633,1.294 -6.229,-27.12 6.277,-1.443 8.282,9.323 c 2.278,2.529 4.91,5.693 7.048,8.55 l 0.161,-0.038 c -1.074,-3.567 -2.141,-7.853 -3.139,-12.198 l -1.85,-8.047 z m 17.622,-1.9 0.817,27.808 -6.269,0.183 -0.817,-27.808 z m 17.141,13.946 c -0.621,-0.064 -1.368,-0.125 -2.233,-0.1 -2.396,0.071 -5.293,1.436 -5.197,4.617 0.088,3.055 2.778,4.588 5.546,4.505 0.867,-0.025 1.61,-0.087 2.142,-0.226 z m 5.802,-14.622 0.813,27.684 c -1.395,0.248 -3.699,0.523 -6.71,0.612 -4.086,0.119 -8.776,-0.567 -11.537,-3.211 -1.401,-1.403 -2.323,-3.318 -2.402,-5.918 -0.182,-6.272 5.009,-9.273 10.75,-9.441 1.03,-0.031 2.315,0.056 3.103,0.156 l -0.284,-9.698 z m 32.919,4.111 -3.858,27.548 -6.251,-0.875 1.615,-11.529 -10.269,-1.439 -1.614,11.531 -6.21,-0.872 3.861,-27.551 6.21,0.869 -1.483,10.592 10.266,1.438 1.485,-10.591 z m 31.763,9.41 -8.389,26.523 -6.02,-1.904 3.51,-11.1 -9.883,-3.126 -3.509,11.1 -5.98,-1.889 8.389,-26.525 5.978,1.891 -3.224,10.194 9.885,3.127 3.225,-10.195 z m 3.928,13.75 9.22,4.451 2.516,-5.211 -9.779,-4.72 2.24,-4.641 15.464,7.464 -12.096,25.053 -15.98,-7.716 2.24,-4.644 10.297,4.975 2.874,-5.956 -9.219,-4.452 z m 30.186,22.36 -1.779,-1.202 c -2.596,-1.759 -5.309,-2.246 -6.881,0.078 -1.644,2.429 -0.158,4.729 2.201,6.326 0.891,0.602 1.507,1.017 2.063,1.294 z m 6.153,-9.097 c -0.398,-0.367 -1.003,-0.876 -2.131,-1.638 -2.359,-1.598 -4.318,-1.575 -5.496,0.17 -1.155,1.709 -0.448,3.83 2.285,5.682 l 1.709,1.156 z m -7.812,22.677 c -1.281,-0.614 -3.31,-1.741 -5.875,-3.474 -4.581,-3.098 -6.876,-5.748 -7.651,-8.215 -0.649,-2.132 -0.496,-4.425 0.915,-6.508 2.011,-2.977 5.302,-3.643 8.423,-2.579 l 0.045,-0.067 c -1.952,-2.717 -1.854,-5.439 -0.464,-7.493 1.409,-2.085 3.637,-2.871 5.823,-2.641 2.345,0.143 4.502,1.153 7.683,3.305 2.601,1.756 5.23,3.837 6.411,5.035 z m 12.958,11.445 -4.656,-4.269 15.232,-16.613 -5.599,-5.133 3.572,-3.898 15.762,14.453 -3.569,3.895 -5.51,-5.051 z m 12.446,4.104 c 0.422,1.263 1.47,3.136 2.702,4.584 3.635,4.279 8.447,4.525 12.694,0.916 4.721,-4.009 4.504,-8.919 1.27,-12.725 -1.442,-1.7 -2.972,-2.73 -4.205,-3.358 l 2.976,-4.21 c 1.164,0.476 3.27,1.935 5.38,4.42 5.454,6.42 5.809,15.001 -1.428,21.147 -6.04,5.133 -13.811,5.231 -20.036,-2.098 -2.195,-2.581 -3.404,-4.964 -3.714,-6.22 z m 37.424,21.295 c -0.131,-0.454 -0.483,-1.256 -1.152,-2.345 -1.649,-2.67 -3.882,-3.379 -6.061,-2.035 -2.423,1.497 -2.781,4.141 -1.023,6.987 0.477,0.774 0.858,1.315 1.245,1.705 z m -16.33,17.401 -3.273,-5.305 8.468,-5.225 c -0.376,-0.446 -0.802,-1.059 -1.234,-1.761 -1.95,-3.164 -2.847,-6.346 -2.254,-9.233 0.469,-2.231 1.959,-4.22 4.278,-5.649 2.319,-1.431 4.914,-1.625 7.043,-0.852 2.24,0.803 4.325,2.765 6.361,6.067 2.016,3.27 3.237,5.716 3.975,7.54 z m 19.262,13.216 4.792,-3.825 c 1.305,-1.046 3.083,-2.251 4.442,-3.274 l -0.031,-0.079 c -1.683,0.266 -3.776,0.618 -5.491,0.805 l -6.112,0.708 z m -7.087,-4.664 -7.415,0.812 -2.643,-6.233 28.985,-2.919 3.226,7.601 -22.301,18.695 -2.543,-6.009 5.8,-4.61 z m 26.356,28.754 -1.506,-5.879 -17.038,4.362 2.292,8.956 c 1.099,-1.045 2.562,-2.145 4.079,-3.045 2.516,-1.497 5.453,-2.675 8.574,-3.473 z m 6.402,4.369 -7.2,1.844 c -3.319,0.849 -6.157,1.915 -8.679,3.374 -1.966,1.142 -3.702,2.521 -5.345,4.094 l 0.412,2.282 -11.539,2.697 -1.187,-4.641 6.756,-2.067 -4.033,-15.76 -6.921,1.431 -1.187,-4.64 11.405,-3.22 0.847,2.639 22.158,-5.669 z m 4.339,32.394 -19.969,-7.365 c -0.474,-0.161 -0.857,-0.246 -1.283,0.047 -1.225,0.625 -2.402,2.074 -2.203,4.004 0.093,0.903 0.242,1.553 0.416,2.031 l -4.964,0.968 c -0.369,-0.751 -0.62,-1.597 -0.769,-3.034 -0.333,-3.243 0.826,-5.688 2.9,-7.726 2.333,-2.315 6.346,-4.472 10.486,-6.597 l 12.895,-6.556 0.677,6.57 -9.344,3.991 c -2.267,0.939 -4.072,1.58 -5.223,2.074 l 0.012,0.123 c 1.748,0.44 3.449,0.849 5.496,1.383 l 10.149,3.023 z m -21.918,6.266 c -0.55,1.216 -1.052,3.303 -1.134,5.201 -0.245,5.608 3.121,9.059 8.69,9.3 6.188,0.266 9.368,-3.479 9.584,-8.469 0.097,-2.228 -0.322,-4.025 -0.802,-5.326 l 5.041,-1.061 c 0.528,1.135 1.082,3.64 0.94,6.899 -0.365,8.413 -5.929,14.945 -15.42,14.536 -7.92,-0.344 -13.681,-5.546 -13.265,-15.158 0.144,-3.381 0.877,-5.95 1.5,-7.081 z m 13.634,40.855 c 0.806,-4.261 -2.967,-7.415 -7.877,-8.344 -5.315,-1.006 -9.747,0.637 -10.535,4.818 -0.786,4.136 2.512,7.368 7.87,8.382 5.313,1.004 9.751,-0.677 10.542,-4.856 m 4.935,0.764 c -1.529,8.074 -8.64,12.144 -16.833,10.593 -7.791,-1.473 -13.016,-7.375 -11.481,-15.489 1.514,-7.993 7.972,-12.396 16.941,-10.697 7.545,1.427 12.961,7.196 11.373,15.593 m -9.976,33.626 -26.318,-9.02 2.048,-5.968 21.439,7.345 3.415,-9.96 4.876,1.674 z m -12.152,38.524 c -2.838,-2.014 -3.202,-4.602 -1.393,-7.75 1.832,-3.187 4.307,-4.427 7.502,-2.874 l -2.095,3.647 c -1.476,-0.659 -2.51,-0.684 -3.149,0.429 -0.662,1.147 -0.1,1.994 1.272,2.832 z m -8.188,1.484 -24.114,-13.873 3.581,-6.224 11.516,0.096 c 3.363,0.032 7.432,0.322 10.933,0.858 l 0.062,-0.107 c -3.334,-1.489 -6.667,-3.312 -10.388,-5.45 l -7.118,-4.097 2.878,-5.005 24.112,13.873 -3.207,5.577 -12.467,-0.263 c -3.401,-0.052 -7.513,-0.27 -11.06,-0.646 l -0.084,0.145 c 3.344,1.638 7.213,3.768 11.079,5.991 l 7.158,4.116 z m -20.771,25.987 -21.414,-17.768 4.586,-5.529 11.332,2.054 c 3.313,0.601 7.272,1.58 10.63,2.706 l 0.08,-0.096 c -3.033,-2.036 -6.009,-4.396 -9.313,-7.137 l -6.32,-5.246 3.688,-4.449 21.415,17.768 -4.115,4.957 -12.24,-2.38 c -3.341,-0.628 -7.356,-1.542 -10.789,-2.514 l -0.105,0.127 c 3.017,2.183 6.471,4.941 9.9,7.786 l 6.356,5.274 z m -22.207,19.938 -18.016,-21.207 4.754,-4.036 7.534,8.873 0.915,-0.775 c 2.577,-2.192 2.004,-4.845 0.697,-7.85 -0.833,-2 -1.813,-3.985 -2.321,-6.047 l 5.161,-4.383 c 0.784,2.961 2.043,5.846 3.214,8.754 1.282,3.298 1.658,6.228 -0.491,9.245 l 15.386,3.128 -5.823,4.944 -13.334,-3.837 -0.41,0.346 7.483,8.809 z m -18.94,-13.33 c -1.308,0.261 -3.298,1.066 -4.889,2.105 -4.702,3.068 -5.548,7.81 -2.502,12.478 3.381,5.187 8.279,5.589 12.462,2.859 1.868,-1.216 3.082,-2.602 3.864,-3.75 l 3.8,3.484 c -0.619,1.093 -2.33,2.999 -5.062,4.782 -7.053,4.601 -15.613,3.877 -20.799,-4.076 -4.332,-6.639 -3.456,-14.358 4.6,-19.614 2.835,-1.851 5.351,-2.753 6.636,-2.903 z m -30.58,26.101 c 0.747,-0.248 1.459,-0.48 2.285,-0.853 2.745,-1.25 4.416,-3.46 3.101,-6.354 -1.298,-2.856 -4.167,-3.186 -6.948,-1.922 -0.827,0.376 -1.486,0.72 -2.075,1.122 z m 0.299,15.734 -11.457,-25.22 c 1.193,-0.769 3.214,-1.913 6.033,-3.194 3.947,-1.794 8.536,-2.969 12.108,-1.6 1.836,0.754 3.444,2.201 4.536,4.606 2.561,5.638 -0.884,10.331 -6.335,12.805 -1.089,0.498 -2.341,0.93 -3.166,1.213 l 3.993,8.796 z m -27.071,8.676 -3.314,-11.719 c -1.145,-4.054 -2.51,-7.356 -4.611,-8.565 -0.876,-0.526 -2.106,-0.776 -3.46,-0.566 l -0.627,-5.099 c 2.142,-0.606 4.13,-0.568 5.693,-0.195 4.724,1.238 7.093,6.275 9.036,13.147 l 1.796,6.358 6.079,-1.719 -6.166,-21.811 6.039,-1.707 7.568,26.776 z m -23.658,-0.365 c 4.301,-0.549 6.131,-5.112 5.5,-10.067 -0.687,-5.365 -3.613,-9.068 -7.83,-8.53 -4.18,0.532 -6.232,4.666 -5.542,10.072 0.685,5.363 3.656,9.064 7.872,8.525 m 0.797,4.935 c -8.15,1.039 -14.219,-4.47 -15.277,-12.743 -1.005,-7.861 2.999,-14.657 11.188,-15.703 8.067,-1.03 14.256,3.759 15.411,12.807 0.971,7.619 -2.844,14.557 -11.322,15.639 m -44.922,0.411 1.201,-27.793 6.307,0.273 -0.978,22.644 9.863,0.426 0.976,-22.644 6.306,0.273 -1.2,27.795 z m -20.925,-8.177 c 4.239,0.91 7.483,-2.789 8.529,-7.674 1.132,-5.291 -0.403,-9.759 -4.563,-10.648 -4.12,-0.881 -7.426,2.337 -8.568,7.667 -1.132,5.29 0.444,9.766 4.602,10.655 m -0.883,4.916 c -8.035,-1.72 -11.935,-8.925 -10.189,-17.082 1.663,-7.754 7.684,-12.834 15.758,-11.104 7.956,1.703 12.204,8.264 10.295,17.187 -1.61,7.511 -7.508,12.789 -15.864,10.999 m -21.039,-35.661 5.92,2.19 -7.813,21.145 7.124,2.63 -1.829,4.952 -20.054,-7.412 1.828,-4.95 7.009,2.592 z m -13.196,0.878 c -0.852,-1.028 -2.505,-2.397 -4.172,-3.303 -4.934,-2.681 -9.511,-1.175 -12.175,3.724 -2.957,5.441 -0.987,9.942 3.4,12.331 1.959,1.063 3.757,1.474 5.138,1.615 l -1.261,4.997 c -1.255,-0.024 -3.746,-0.63 -6.611,-2.186 -7.399,-4.022 -10.822,-11.893 -6.286,-20.237 3.784,-6.966 10.99,-9.855 19.442,-5.263 2.973,1.616 4.964,3.401 5.702,4.461 z m -36.781,-15.571 -2.219,5.714 c -0.605,1.56 -1.538,3.493 -2.197,5.059 l 0.066,0.052 c 1.32,-1.075 2.955,-2.429 4.343,-3.453 l 4.931,-3.68 z m 8.472,0.472 6.002,-4.428 5.417,4.063 -23.598,17.084 -6.604,-4.956 9.892,-27.362 5.218,3.913 -2.699,6.905 z m -29.418,-18.64 1.509,1.528 c 2.203,2.231 4.767,3.241 6.764,1.267 2.084,-2.058 1.08,-4.605 -0.921,-6.63 -0.757,-0.764 -1.278,-1.293 -1.771,-1.676 z m -7.815,7.716 c 0.319,0.441 0.813,1.055 1.769,2.025 2.002,2.029 3.927,2.389 5.423,0.912 1.47,-1.45 1.192,-3.672 -1.129,-6.021 l -1.45,-1.47 z m 12.1,-20.711 c 1.132,0.854 2.903,2.355 5.08,4.559 3.888,3.937 5.621,6.983 5.895,9.553 0.219,2.219 -0.379,4.434 -2.17,6.206 -2.557,2.521 -5.913,2.53 -8.762,0.878 l -0.059,0.058 c 1.382,3.046 0.752,5.699 -1.01,7.437 -1.791,1.773 -4.131,2.106 -6.228,1.451 -2.273,-0.597 -4.192,-2.011 -6.889,-4.745 -2.204,-2.23 -4.377,-4.784 -5.304,-6.192 z m -16.84,5.953 -6.228,-8.127 -4.586,3.515 6.604,8.619 -4.097,3.14 L 0.942,65.912 23.03,48.987 l 10.795,14.09 -4.096,3.139 -6.956,-9.075 -5.242,4.016 6.228,8.125 z M 15.092,47.545 C 14.929,46.22 14.279,44.175 13.364,42.513 10.662,37.59 5.997,36.383 1.112,39.069 c -5.428,2.979 -6.2,7.833 -3.798,12.21 1.074,1.956 2.362,3.272 3.449,4.135 L -3,58.94 c -1.044,-0.699 -2.815,-2.55 -4.385,-5.41 -4.052,-7.382 -2.679,-15.86 5.641,-20.43 6.948,-3.817 14.58,-2.355 19.212,6.076 1.63,2.968 2.339,5.545 2.386,6.836 z"
             style="fill:#ffffff;fill-opacity:1;fill-rule:nonzero;stroke:none"
             id="path28" />
        </g>
      </g>
    </g>
  </g>
</svg>
